<svg xmlns="http://www.w3.org/2000/svg" version="1.2" baseProfile="tiny-ps" viewBox="0 0 1024 1024">
<title>Galaxy Cue</title>
<defs>
 <linearGradient id="silver" x1="0" y1="0" x2="1" y2="1"><stop offset="0" stop-color="#ffffff"/><stop offset="0.45" stop-color="#cfd2d7"/><stop offset="1" stop-color="#8f949d"/></linearGradient>
 <linearGradient id="gold" x1="0" y1="0" x2="1" y2="1"><stop offset="0" stop-color="#f4dea3"/><stop offset="0.5" stop-color="#d7b65c"/><stop offset="1" stop-color="#a9832d"/></linearGradient>
</defs>
<rect width="1024" height="1024" rx="190" fill="#0d1015"/>
<rect x="10" y="10" width="1004" height="1004" rx="180" fill="none" stroke="#363c47" stroke-width="10"/>
<path d="M590.2 722.26Q541.24 746.06 488.54 757.96Q435.84000000000003 769.86 379.74 769.86Q252.92000000000002 769.86 178.8 698.97Q104.68 628.0799999999999 104.68 506.7Q104.68 383.96 180.16000000000003 313.5799999999999Q255.64000000000001 243.19999999999993 386.88 243.19999999999993Q437.54 243.19999999999993 483.95000000000005 252.71999999999994Q530.36 262.23999999999995 571.5 280.93999999999994V386.0Q529.0 361.85999999999996 487.01 349.9599999999999Q445.02000000000004 338.05999999999995 402.86 338.05999999999995Q324.66 338.05999999999995 282.33000000000004 381.75Q240.0 425.44 240.0 506.7Q240.0 587.28 280.8 631.14Q321.6 675.0 396.74 675.0Q417.14000000000004 675.0 434.65000000000003 672.45Q452.16 669.9 466.1 664.46V565.86H386.20000000000005V478.14H590.2Z" fill="url(#silver)"/>
<path d="M906.48 732.12Q870.44 750.82 831.34 760.34Q792.24 769.86 749.74 769.86Q622.9200000000001 769.86 548.8000000000001 698.97Q474.68 628.0799999999999 474.68 506.7Q474.68 384.97999999999996 548.8000000000001 314.0899999999999Q622.9200000000001 243.19999999999993 749.74 243.19999999999993Q792.24 243.19999999999993 831.34 252.71999999999994Q870.44 262.23999999999995 906.48 280.93999999999994V386.0Q870.1 361.17999999999995 834.74 349.61999999999995Q799.3800000000001 338.05999999999995 760.28 338.05999999999995Q690.24 338.05999999999995 650.12 382.93999999999994Q610.0 427.82 610.0 506.7Q610.0 585.24 650.12 630.12Q690.24 675.0 760.28 675.0Q799.3800000000001 675.0 834.74 663.44Q870.1 651.88 906.48 627.06Z" fill="url(#gold)"/>
<path d="M775 404 C789 452 816 479 864 493 C816 507 789 534 775 582 C761 534 734 507 686 493 C734 479 761 452 775 404Z" fill="url(#gold)"/>
</svg>